#!OML:ASF F:\VICON\USERDATA\INSTALL\Justin_Nancy\Justin_Nancy.ASF
:FULLY-SPECIFIED
:DEGREES
237
root 11.6229 17.5154 3.25133 1.23739 -31.6079 6.66085
lowerback 6.24704 -1.31932 -3.43907
upperback -1.06711 -1.96048 1.61306
thorax -4.44231 -0.862937 3.80335
lowerneck -19.0148 -6.06559 -9.70026
upperneck 25.2903 -7.32909 5.75171
head 12.0697 -3.53677 2.58356
rclavicle -1.99779e-014 1.59028e-015
rhumerus -32.8853 -15.7391 -78.4233
rradius 28.7901
rwrist 8.86541
rhand -14.4111 11.0281
rfingers 7.12502
rthumb 11.7327 -18.6233
lclavicle -1.99779e-014 1.59028e-015
lhumerus -29.3043 18.1032 77.4638
lradius 26.9207
lwrist -7.91816
lhand -17.1946 27.2078
lfingers 7.12502
lthumb 9.04752 56.9938
rfemur -22.0825 -5.45941 28.7982
rtibia 13.0743
rfoot 0.837624 -17.3343
rtoes 26.959
lfemur -3.97959 10.0158 -22.7407
ltibia 38.7214
lfoot -7.88016 6.92029
ltoes -30.2054
238
root 11.541 17.5357 3.34715 1.14744 -32.7895 6.65946
lowerback 6.14724 -1.03303 -3.28308
upperback -1.12372 -1.56685 1.53667
thorax -4.48607 -0.670674 3.59651
lowerneck -17.5597 -6.31859 -9.87671
upperneck 25.0075 -7.77806 5.72286
head 11.7201 -3.7906 2.5535
rclavicle 2.127e-014 -2.38542e-015
rhumerus -33.1359 -15.4332 -78.7434
rradius 29.567
rwrist 7.37867
rhand -14.4346 9.50125
rfingers 7.12502
rthumb 11.71 -20.1515
lclavicle 2.127e-014 -2.38542e-015
lhumerus -29.7115 17.7666 77.6282
lradius 26.4859
lwrist -7.90812
lhand -17.3649 27.9287
lfingers 7.12502
lthumb 8.88322 57.7217
rfemur -21.2534 -5.03312 28.9191
rtibia 12.6722
rfoot 0.689274 -16.182
rtoes 27.3188
lfemur -4.86112 10.273 -22.283
ltibia 40.644
lfoot -5.7772 5.72103
ltoes -28.9387
239
root 11.4603 17.5496 3.44785 0.97711 -33.8209 6.63762
lowerback 6.12889 -0.944039 -3.11388
upperback -1.3025 -1.43286 1.59864
thorax -4.67604 -0.600999 3.55592
lowerneck -13.2351 -6.06112 -11.595
upperneck 22.8984 -7.64761 6.9076
head 10.212 -3.83492 3.36946
rclavicle 4.92986e-014 -5.56597e-015
rhumerus -33.4842 -15.722 -78.3415
rradius 29.5261
rwrist 7.97683
rhand -13.6891 10.8092
rfingers 7.12502
rthumb 12.4288 -18.8013
lclavicle 4.92986e-014 -5.56597e-015
lhumerus -30.6813 18.0507 77.6198
lradius 26.3139
lwrist -8.08661
lhand -17.119 28.3854
lfingers 7.12502
lthumb 9.12051 58.1682
rfemur -20.4063 -4.85698 29.0909
rtibia 12.4291
rfoot 0.507022 -15.1392
rtoes 27.3728
lfemur -5.62282 10.2875 -21.7946
ltibia 42.4862
lfoot -3.33369 4.38526
ltoes -28.0086
240
root 11.3794 17.5511 3.5484 0.829861 -34.9599 6.51422
lowerback 6.10494 -0.987447 -3.01978
upperback -1.29879 -1.47653 1.74499
thorax -4.65347 -0.623966 3.65912
lowerneck -13.397 -6.1376 -12.04
upperneck 23.2073 -7.78422 7.39529
head 10.4103 -3.88526 3.59902
rclavicle 1.98785e-015 6.36111e-015
rhumerus -33.2294 -14.9359 -78.7346
rradius 29.7106
rwrist 7.49028
rhand -13.9358 9.96009
rfingers 7.12502
rthumb 12.191 -19.6647
lclavicle 1.98785e-015 6.36111e-015
lhumerus -31.4799 18.7961 77.434
lradius 26.1573
lwrist -8.6506
lhand -16.0708 28.7379
lfingers 7.12502
lthumb 10.1318 58.474
rfemur -19.5083 -4.7513 29.4473
rtibia 12.1129
rfoot 0.391386 -13.9431
rtoes 26.2281
lfemur -6.312 10.4707 -21.174
ltibia 44.3188
lfoot -0.606505 2.66923
ltoes -28.0868
241
root 11.2982 17.5538 3.6437 0.764176 -35.9997 6.30081
lowerback 6.13083 -1.07342 -2.83464
upperback -1.13261 -1.57743 1.73334
thorax -4.49087 -0.685215 3.54924
lowerneck -13.8859 -6.19661 -11.6917
upperneck 23.3779 -7.9305 7.4775
head 10.5692 -3.90354 3.54108
rclavicle 7.16619e-014 1.19271e-014
rhumerus -32.7224 -14.2995 -79.5005
rradius 29.9028
rwrist 7.33536
rhand -14.1714 10.132
rfingers 7.12502
rthumb 11.9639 -19.5061
lclavicle 7.16619e-014 1.19271e-014
lhumerus -31.902 18.9221 77.2703
lradius 26.1805
lwrist -8.89263
lhand -14.3088 30.1792
lfingers 7.12502
lthumb 11.8313 59.8249
rfemur -18.6558 -4.22931 29.7797
rtibia 11.8677
rfoot 0.272222 -13.2905
rtoes 24.9351
lfemur -7.09785 10.4257 -20.4885
ltibia 46.1934
lfoot 2.31359 0.521253
ltoes -28.5125
242
root 11.2212 17.5602 3.73806 0.854554 -36.987 5.91677
lowerback 6.18339 -1.16406 -2.43524
upperback -1.02745 -1.66708 1.76588
thorax -4.4132 -0.742807 3.36548
lowerneck -14.1084 -6.23482 -11.2118
upperneck 23.5377 -8.03116 7.23447
head 10.6476 -3.93165 3.35466
rclavicle -1.799e-014 -5.56597e-015
rhumerus -32.3096 -14.067 -79.9374
rradius 29.9714
rwrist 7.64971
rhand -13.4667 11.6654
rfingers 7.12502
rthumb 12.6433 -17.9319
lclavicle -1.799e-014 -5.56597e-015
lhumerus -32.4335 18.9295 77.2577
lradius 26.3651
lwrist -8.70003
lhand -13.1901 30.9229
lfingers 7.12502
lthumb 12.91 60.5035
rfemur -17.8698 -3.96921 30.2776
rtibia 11.6106
rfoot -0.086526 -12.8273
rtoes 25.9456
lfemur -7.98419 10.1059 -19.7603
ltibia 48.1023
lfoot 4.73277 -1.71586
ltoes -27.8347
243
root 11.1488 17.5546 3.8285 0.939209 -38.093 5.64635
lowerback 6.29873 -1.27619 -2.25504
upperback -1.05469 -1.79767 1.93871
thorax -4.49694 -0.808377 3.46087
lowerneck -14.195 -6.33661 -11.385
upperneck 23.7389 -8.14775 7.24616
head 10.7606 -4.00067 3.36955
rclavicle -5.73494e-014 2.38542e-015
rhumerus -32.0646 -12.9214 -80.4574
rradius 30.4421
rwrist 6.94339
rhand -13.0955 11.6519
rfingers 7.12502
rthumb 13.0012 -17.923
lclavicle -5.73494e-014 2.38542e-015
lhumerus -33.2915 19.232 77.2936
lradius 26.4772
lwrist -8.83557
lhand -13.3589 30.0121
lfingers 7.12502
lthumb 12.7472 59.603
rfemur -16.8849 -4.17013 30.8234
rtibia 10.6384
rfoot 0.145814 -11.8166
rtoes 25.7158
lfemur -8.99126 9.59513 -19.2
ltibia 50.0937
lfoot 6.58413 -3.8691
ltoes -22.6951
244
root 11.0782 17.5393 3.91144 1.01535 -39.4165 5.36216
lowerback 6.46444 -1.24106 -2.05327
upperback -1.08242 -1.73272 2.04357
thorax -4.62709 -0.777507 3.45627
lowerneck -14.3192 -6.58962 -11.6899
upperneck 23.9346 -8.50837 7.50197
head 10.9249 -4.16388 3.45678
rclavicle -1.69464e-013 1.35174e-014
rhumerus -32.0362 -11.753 -81.0101
rradius 31.1644
rwrist 6.19999
rhand -13.1853 10.873
rfingers 7.12502
rthumb 12.9146 -18.7074
lclavicle -1.69464e-013 1.35174e-014
lhumerus -33.8213 19.2706 77.3407
lradius 26.1887
lwrist -9.43249
lhand -13.324 29.1863
lfingers 7.12502
lthumb 12.7808 58.7751
rfemur -15.8397 -4.06536 31.3946
rtibia 9.48326
rfoot 0.874464 -10.6383
rtoes 23.2753
lfemur -10.0333 9.11277 -18.5691
ltibia 52.0351
lfoot 8.77192 -7.21303
ltoes -18.7631
245
root 11.0003 17.5756 4.00198 1.07574 -40.2814 5.2169
lowerback 6.45692 -1.32126 -1.73064
upperback -1.046 -1.81483 2.02018
thorax -4.58895 -0.828319 3.25678
lowerneck -14.2125 -6.80771 -11.888
upperneck 23.8317 -8.88553 7.88322
head 10.9379 -4.31401 3.57171
rclavicle 6.29153e-014 -2.38542e-015
rhumerus -31.8163 -10.9358 -81.6007
rradius 31.7551
rwrist 5.63656
rhand -13.4263 10.7839
rfingers 7.12502
rthumb 12.6823 -18.811
lclavicle 6.29153e-014 -2.38542e-015
lhumerus -33.7496 18.4771 77.7306
lradius 25.5897
lwrist -9.41432
lhand -13.2477 28.9671
lfingers 7.12502
lthumb 12.8544 58.5513
rfemur -14.7096 -4.41673 31.8162
rtibia 8.22052
rfoot 1.24067 -9.42337
rtoes 21.9526
lfemur -11.6481 8.00202 -18.0867
ltibia 53.9821
lfoot 11.4678 -11.1966
ltoes -18.7576
246
root 10.9294 17.5725 4.09127 1.28188 -41.4485 4.69839
lowerback 6.5621 -1.44646 -1.31092
upperback -0.983186 -1.94345 2.16465
thorax -4.58283 -0.90252 3.18572
lowerneck -13.6982 -6.76434 -11.8391
upperneck 23.4091 -8.90259 7.99702
head 10.686 -4.31845 3.61021
rclavicle 2.74323e-014 -6.36111e-015
rhumerus -31.5264 -9.57783 -82.3117
rradius 32.3897
rwrist 4.97798
rhand -13.2047 10.8242
rfingers 7.12502
rthumb 12.8959 -18.7574
lclavicle 2.74323e-014 -6.36111e-015
lhumerus -33.9088 18.0892 77.9774
lradius 25.1983
lwrist -9.68385
lhand -12.8811 28.811
lfingers 7.12502
lthumb 13.2078 58.3726
rfemur -13.2131 -4.49304 32.4946
rtibia 6.56447
rfoot 1.5709 -8.27901
rtoes 21.5434
lfemur -12.5695 7.44048 -17.3676
ltibia 55.7027
lfoot 12.7649 -14.193
ltoes -18.347
